<?xml version="1.0" encoding="iso-8859-1"?>
<!-- Uploaded to: SVG Repo, www.svgrepo.com, Generator: SVG Repo Mixer Tools -->
<svg fill="#000000" height="800px" width="800px" version="1.1" id="Capa_1" xmlns="http://www.w3.org/2000/svg" xmlns:xlink="http://www.w3.org/1999/xlink" 
	 viewBox="0 0 29.107 29.107" xml:space="preserve">
<g>
	<g id="c151_half_moon">
		<path d="M29.106,14.551c0-0.03-0.004-0.059-0.004-0.09C29.054,6.467,22.56,0,14.552,0C6.546,0,0.051,6.471,0.002,14.468
			c0,0.029-0.001,0.054-0.001,0.083l0,0l0,0c0,8.039,6.517,14.556,14.551,14.556C22.59,29.106,29.106,22.59,29.106,14.551
			L29.106,14.551L29.106,14.551z M2.078,14.551c0-6.875,5.597-12.472,12.474-12.472v24.949C7.675,27.028,2.078,21.431,2.078,14.551z
			"/>
	</g>
	<g id="Capa_1_121_">
	</g>
</g>
</svg>