<?xml version="1.0" encoding="utf-8"?>
<!-- Uploaded to: SVG Repo, www.svgrepo.com, Generator: SVG Repo Mixer Tools -->
<svg width="800px" height="800px" viewBox="0 0 24 24" fill="none" xmlns="http://www.w3.org/2000/svg">
<g id="style=stroke">
<g id="like">
<path id="vector (Stroke)" fill-rule="evenodd" clip-rule="evenodd" d="M14.2102 2.59462C15.433 3.00969 16.2694 4.34931 15.9976 5.63891L15.5019 8.81168C15.483 8.95057 15.5238 9.02715 15.5598 9.06803C15.6017 9.11544 15.6701 9.15175 15.76 9.15175H19.76C20.7004 9.15175 21.5475 9.5166 22.0669 10.2072C22.5933 10.9072 22.6979 11.8292 22.3659 12.7549C22.2456 13.0904 22.126 13.5007 21.9862 13.9881C21.9758 14.0245 21.9653 14.0613 21.9546 14.0984C21.8252 14.5503 21.6807 15.0546 21.5115 15.5812C21.1452 16.7211 20.6523 18.0009 19.8942 19.202C19.2027 20.2977 18.2938 21.3018 16.68 21.3018H6.66058L6.66003 19.8018H16.68C17.5011 19.8018 18.0176 19.365 18.6257 18.4015C19.2877 17.3526 19.7347 16.2074 20.0834 15.1223C20.245 14.6195 20.3832 14.1371 20.5135 13.6822C20.5238 13.6462 20.5341 13.6104 20.5443 13.5747C20.6814 13.0965 20.8143 12.6381 20.954 12.2486C21.142 11.7243 21.0467 11.3463 20.868 11.1088C20.6824 10.8619 20.3195 10.6518 19.76 10.6518H15.76C14.7166 10.6518 13.8511 9.76035 14.0175 8.59568L14.0189 8.58596L14.5226 5.36237L14.5278 5.33905C14.6385 4.84103 14.2848 4.20061 13.7228 4.01326L13.7096 4.00887L13.6966 4.004C13.4936 3.92788 13.2269 3.92963 12.9538 4.02352C12.6756 4.11914 12.4749 4.28145 12.384 4.41778L12.3824 4.42013L8.28243 10.5201L7.0375 9.68337L11.1359 3.58573C11.1362 3.5853 11.1365 3.58488 11.1368 3.58446C11.446 3.12144 11.9448 2.7842 12.4662 2.60499C12.9892 2.4252 13.617 2.37633 14.2102 2.59462Z" fill="#000000"/>
<path id="rec (Stroke)" fill-rule="evenodd" clip-rule="evenodd" d="M1.43005 10.5518C1.43005 9.58526 2.21356 8.80176 3.18005 8.80176H6.68005C7.64655 8.80176 8.43005 9.58526 8.43005 10.5518V21.3018H3.18005C2.21356 21.3018 1.43005 20.5183 1.43005 19.5518V10.5518ZM3.18005 10.3018C3.04198 10.3018 2.93005 10.4137 2.93005 10.5518V19.5518C2.93005 19.6898 3.04198 19.8018 3.18005 19.8018H6.93005V10.5518C6.93005 10.4137 6.81812 10.3018 6.68005 10.3018H3.18005Z" fill="#000000"/>
</g>
</g>
</svg>