<svg width="20" height="20" viewBox="0 0 20 20" fill="none" xmlns="http://www.w3.org/2000/svg" class="mr-1"><path fill-rule="evenodd" clip-rule="evenodd" d="M10.4166 16.143L8.90183 14.6282H4.99996C3.89539 14.6282 2.99996 13.7328 2.99996 12.6282V5.83333C2.99996 4.72876 3.89539 3.83333 4.99996 3.83333H15.8333C16.9379 3.83333 17.8333 4.72876 17.8333 5.83333V12.6282C17.8333 13.7328 16.9379 14.6282 15.8333 14.6282H11.9314L10.4166 16.143ZM8.34954 15.9615L10.4166 18.0286L12.4837 15.9615H15.8333C17.6742 15.9615 19.1666 14.4692 19.1666 12.6282V5.83333C19.1666 3.99238 17.6742 2.5 15.8333 2.5H4.99996C3.15901 2.5 1.66663 3.99239 1.66663 5.83333V12.6282C1.66663 14.4692 3.15901 15.9615 4.99996 15.9615H8.34954ZM5.70494 10.5769C6.4484 10.5769 7.05109 9.97421 7.05109 9.23075C7.05109 8.48729 6.4484 7.8846 5.70494 7.8846C4.96148 7.8846 4.35878 8.48729 4.35878 9.23075C4.35878 9.97421 4.96148 10.5769 5.70494 10.5769ZM10.4164 10.5769C11.1599 10.5769 11.7626 9.97421 11.7626 9.23075C11.7626 8.48729 11.1599 7.8846 10.4164 7.8846C9.67299 7.8846 9.07029 8.48729 9.07029 9.23075C9.07029 9.97421 9.67299 10.5769 10.4164 10.5769ZM16.4742 9.23075C16.4742 9.97421 15.8715 10.5769 15.1281 10.5769C14.3846 10.5769 13.7819 9.97421 13.7819 9.23075C13.7819 8.48729 14.3846 7.8846 15.1281 7.8846C15.8715 7.8846 16.4742 8.48729 16.4742 9.23075Z" fill="#ffffff"></path></svg>