<svg width="22" height="22" viewBox="0 0 22 22" fill="none" xmlns="http://www.w3.org/2000/svg"><path d="M3.17997 9.56909H7.13382V18.1358H3.17997C3.0052 18.1358 2.83759 18.0663 2.71401 17.9428C2.59042 17.8192 2.521 17.6516 2.521 17.4768V10.2281C2.521 10.0533 2.59042 9.88568 2.71401 9.7621C2.83759 9.63852 3.0052 9.56909 3.17997 9.56909V9.56909Z" stroke="currentColor" stroke-width="1.5" stroke-linecap="round" stroke-linejoin="round"></path><path d="M7.13379 9.56899L10.4287 2.97925C10.7748 2.97925 11.1176 3.04743 11.4374 3.17989C11.7572 3.31236 12.0478 3.50652 12.2925 3.75128C12.5373 3.99605 12.7314 4.28663 12.8639 4.60643C12.9964 4.92623 13.0646 5.26899 13.0646 5.61515V7.59207H18.1614C18.3482 7.59207 18.533 7.63181 18.7033 7.70866C18.8737 7.7855 19.0257 7.8977 19.1494 8.0378C19.2731 8.17789 19.3655 8.34269 19.4207 8.52125C19.4758 8.69981 19.4923 8.88806 19.4691 9.07349L18.4807 16.9812C18.4408 17.2999 18.2859 17.5932 18.0451 17.8057C17.8043 18.0183 17.4941 18.1357 17.1729 18.1357H7.13379" stroke="currentColor" stroke-width="1.5" stroke-linecap="round" stroke-linejoin="round"></path></svg>