<svg width="20" height="20" viewBox="0 0 20 20" stroke="currentColor" fill="currentColor" stroke-width="0" xmlns="http://www.w3.org/2000/svg"><g><path fill-rule="evenodd" clip-rule="evenodd" d="M11.7239 3.5566V6.94507L11.0081 6.89209C8.95223 6.73993 6.56377 7.09439 4.86159 8.59322C3.4123 9.86938 2.33685 12.0882 2.51978 15.8949C3.15674 15.0554 3.98696 14.2257 4.97249 13.5546C6.63466 12.4226 8.77854 11.7172 11.1962 12.2323L11.7239 12.3447V15.9499L17.1558 9.60211L11.7239 3.5566ZM10.3906 2.252C10.3906 1.48793 11.3331 1.12668 11.8438 1.69504L18.4407 9.03711C18.7201 9.34817 18.7258 9.81817 18.454 10.1359L11.8571 17.845C11.3538 18.4331 10.3906 18.0772 10.3906 17.3032V13.4462C8.61927 13.2184 7.029 13.7672 5.72301 14.6566C4.27713 15.6413 3.22017 17.019 2.71851 18.1168C2.5551 18.4744 2.18687 18.5714 1.92089 18.5115C1.66924 18.4548 1.41608 18.2449 1.37091 17.9121C0.663075 12.6958 1.8617 9.45819 3.98045 7.59254C5.84756 5.94847 8.2995 5.48876 10.3906 5.52898V2.252Z" fill="#ffffff"></path></g></svg>